<svg width="6294" height="3057" xmlns="http://www.w3.org/2000/svg" xmlns:xlink="http://www.w3.org/1999/xlink" overflow="hidden"><defs><clipPath id="clip0"><rect x="31958" y="211199" width="6294" height="3057"/></clipPath><clipPath id="clip1"><rect x="31958" y="211200" width="6292" height="3054"/></clipPath><clipPath id="clip2"><rect x="32290" y="211384" width="5869" height="2384"/></clipPath><clipPath id="clip3"><rect x="32290" y="211384" width="5869" height="2384"/></clipPath><clipPath id="clip4"><rect x="31958" y="211200" width="6292" height="3054"/></clipPath><clipPath id="clip5"><rect x="31958" y="211200" width="6292" height="3054"/></clipPath><clipPath id="clip6"><rect x="31958" y="211200" width="6292" height="3054"/></clipPath><clipPath id="clip7"><rect x="31958" y="211200" width="6292" height="3054"/></clipPath><clipPath id="clip8"><rect x="31958" y="211200" width="6292" height="3054"/></clipPath><clipPath id="clip9"><rect x="31958" y="211200" width="6292" height="3054"/></clipPath><clipPath id="clip10"><rect x="31958" y="211200" width="6292" height="3054"/></clipPath><clipPath id="clip11"><rect x="31958" y="211200" width="6292" height="3054"/></clipPath><clipPath id="clip12"><rect x="31958" y="211200" width="6292" height="3054"/></clipPath><clipPath id="clip13"><rect x="31958" y="211200" width="6292" height="3054"/></clipPath><clipPath id="clip14"><rect x="31958" y="211200" width="6292" height="3054"/></clipPath><clipPath id="clip15"><rect x="31958" y="211200" width="6292" height="3054"/></clipPath><clipPath id="clip16"><rect x="31958" y="211200" width="6292" height="3054"/></clipPath><clipPath id="clip17"><rect x="31958" y="211200" width="6292" height="3054"/></clipPath><clipPath id="clip18"><rect x="31958" y="211200" width="6292" height="3054"/></clipPath><clipPath id="clip19"><rect x="31958" y="211200" width="6292" height="3054"/></clipPath><clipPath id="clip20"><rect x="31958" y="211200" width="6292" height="3054"/></clipPath><clipPath id="clip21"><rect x="31958" y="211200" width="6292" height="3054"/></clipPath><clipPath id="clip22"><rect x="31958" y="211200" width="6292" height="3054"/></clipPath><clipPath id="clip23"><rect x="31958" y="211200" width="6292" height="3054"/></clipPath><clipPath id="clip24"><rect x="31958" y="211200" width="6292" height="3054"/></clipPath><clipPath id="clip25"><rect x="31958" y="211200" width="6292" height="3054"/></clipPath><clipPath id="clip26"><rect x="31958" y="211200" width="6292" height="3054"/></clipPath><clipPath id="clip27"><rect x="31958" y="211200" width="6292" height="3054"/></clipPath><clipPath id="clip28"><rect x="31958" y="211200" width="6292" height="3054"/></clipPath><clipPath id="clip29"><rect x="31958" y="211200" width="6292" height="3054"/></clipPath><clipPath id="clip30"><rect x="31958" y="211200" width="6292" height="3054"/></clipPath><clipPath id="clip31"><rect x="31958" y="211200" width="6292" height="3054"/></clipPath><clipPath id="clip32"><rect x="31958" y="211200" width="6292" height="3054"/></clipPath><clipPath id="clip33"><rect x="31958" y="211200" width="6292" height="3054"/></clipPath><clipPath id="clip34"><rect x="31958" y="211200" width="6292" height="3054"/></clipPath><clipPath id="clip35"><rect x="31958" y="211200" width="6292" height="3054"/></clipPath><clipPath id="clip36"><rect x="31958" y="211200" width="6292" height="3054"/></clipPath><clipPath id="clip37"><rect x="31958" y="211200" width="6292" height="3054"/></clipPath><clipPath id="clip38"><rect x="31958" y="211200" width="6292" height="3054"/></clipPath><clipPath id="clip39"><rect x="31958" y="211200" width="6292" height="3054"/></clipPath><clipPath id="clip40"><rect x="31958" y="211200" width="6292" height="3054"/></clipPath><clipPath id="clip41"><rect x="31958" y="211200" width="6292" height="3054"/></clipPath><clipPath id="clip42"><rect x="31958" y="211200" width="6292" height="3054"/></clipPath><clipPath id="clip43"><rect x="31958" y="211200" width="6292" height="3054"/></clipPath><clipPath id="clip44"><rect x="31958" y="211200" width="6292" height="3054"/></clipPath><clipPath id="clip45"><rect x="31958" y="211200" width="6292" height="3054"/></clipPath><clipPath id="clip46"><rect x="31958" y="211200" width="6292" height="3054"/></clipPath><clipPath id="clip47"><rect x="31958" y="211200" width="6292" height="3054"/></clipPath><clipPath id="clip48"><rect x="31958" y="211200" width="6292" height="3054"/></clipPath><clipPath id="clip49"><rect x="31958" y="211200" width="6292" height="3054"/></clipPath><clipPath id="clip50"><rect x="31958" y="211200" width="6292" height="3054"/></clipPath><clipPath id="clip51"><rect x="31958" y="211200" width="6292" height="3054"/></clipPath><clipPath id="clip52"><rect x="31958" y="211200" width="6292" height="3054"/></clipPath><clipPath id="clip53"><rect x="31958" y="211200" width="6292" height="3054"/></clipPath><clipPath id="clip54"><rect x="31958" y="211200" width="6292" height="3054"/></clipPath><clipPath id="clip55"><rect x="31958" y="211200" width="6292" height="3054"/></clipPath><clipPath id="clip56"><rect x="31958" y="211200" width="6292" height="3054"/></clipPath><clipPath id="clip57"><rect x="31958" y="211200" width="6292" height="3054"/></clipPath><clipPath id="clip58"><rect x="31958" y="211200" width="6292" height="3054"/></clipPath><clipPath id="clip59"><rect x="31958" y="211200" width="6292" height="3054"/></clipPath><clipPath id="clip60"><rect x="31958" y="211200" width="6292" height="3054"/></clipPath><clipPath id="clip61"><rect x="31958" y="211200" width="6292" height="3054"/></clipPath><clipPath id="clip62"><rect x="31958" y="211200" width="6292" height="3054"/></clipPath><clipPath id="clip63"><rect x="31958" y="211200" width="6292" height="3054"/></clipPath><clipPath id="clip64"><rect x="31958" y="211200" width="6292" height="3054"/></clipPath><clipPath id="clip65"><rect x="31958" y="211200" width="6292" height="3054"/></clipPath><clipPath id="clip66"><rect x="31958" y="211200" width="6292" height="3054"/></clipPath><clipPath id="clip67"><rect x="31958" y="211200" width="6292" height="3054"/></clipPath><clipPath id="clip68"><rect x="31958" y="211200" width="6292" height="3054"/></clipPath><clipPath id="clip69"><rect x="31958" y="211200" width="6292" height="3054"/></clipPath><clipPath id="clip70"><rect x="31958" y="211200" width="6292" height="3054"/></clipPath><clipPath id="clip71"><rect x="31958" y="211200" width="6292" height="3054"/></clipPath><clipPath id="clip72"><rect x="31958" y="211200" width="6292" height="3054"/></clipPath><clipPath id="clip73"><rect x="31958" y="211200" width="6292" height="3054"/></clipPath><clipPath id="clip74"><rect x="31958" y="211200" width="6292" height="3054"/></clipPath><clipPath id="clip75"><rect x="31958" y="211200" width="6292" height="3054"/></clipPath><clipPath id="clip76"><rect x="31958" y="211200" width="6292" height="3054"/></clipPath><clipPath id="clip77"><rect x="31958" y="211200" width="6292" height="3054"/></clipPath><clipPath id="clip78"><rect x="31958" y="211200" width="6292" height="3054"/></clipPath><clipPath id="clip79"><rect x="31958" y="211200" width="6292" height="3054"/></clipPath><clipPath id="clip80"><rect x="31958" y="211200" width="6292" height="3054"/></clipPath><clipPath id="clip81"><rect x="31958" y="211200" width="6292" height="3054"/></clipPath><clipPath id="clip82"><rect x="31958" y="211200" width="6292" height="3054"/></clipPath><clipPath id="clip83"><rect x="31958" y="211200" width="6292" height="3054"/></clipPath><clipPath id="clip84"><rect x="31958" y="211200" width="6292" height="3054"/></clipPath><clipPath id="clip85"><rect x="31958" y="211200" width="6292" height="3054"/></clipPath><clipPath id="clip86"><rect x="31958" y="211200" width="6292" height="3054"/></clipPath><clipPath id="clip87"><rect x="31958" y="211200" width="6292" height="3054"/></clipPath><clipPath id="clip88"><rect x="31958" y="211200" width="6292" height="3054"/></clipPath><clipPath id="clip89"><rect x="31958" y="211200" width="6292" height="3054"/></clipPath><clipPath id="clip90"><rect x="31958" y="211200" width="6292" height="3054"/></clipPath><clipPath id="clip91"><rect x="31958" y="211200" width="6292" height="3054"/></clipPath><clipPath id="clip92"><rect x="31958" y="211200" width="6292" height="3054"/></clipPath><clipPath id="clip93"><rect x="31958" y="211200" width="6292" height="3054"/></clipPath></defs><g clip-path="url(#clip0)" transform="translate(-31958 -211199)"><rect x="31959" y="211200" width="6291" height="3054" fill="#FFFFFF"/><g clip-path="url(#clip1)"><path d="M32290.5 213528 38156.5 213528M32290.5 213290 38156.5 213290M32290.5 213051 38156.5 213051M32290.5 212813 38156.5 212813M32290.5 212574 38156.5 212574M32290.5 212336 38156.5 212336M32290.5 212098 38156.5 212098M32290.5 211860 38156.5 211860M32290.5 211622 38156.5 211622M32290.5 211384 38156.5 211384" stroke="#D9D9D9" stroke-width="3.4375" stroke-linejoin="round" stroke-miterlimit="10" fill="none"/></g><g clip-path="url(#clip2)"><path d="M32721.1 213575 32733.1 213575 32733.1 213765 32721.1 213765ZM32806.1 213480 32818.1 213480 32818.1 213765 32806.1 213765ZM33017.1 213646 33029.1 213646 33029.1 213765 33017.1 213765ZM33059.1 213599 33071.1 213599 33071.1 213765 33059.1 213765ZM33312.1 213646 33324.1 213646 33324.1 213765 33312.1 213765ZM33354.1 213646 33366.1 213646 33366.1 213765 33354.1 213765ZM33734.1 212694 33746.1 212694 33746.1 213765 33734.1 213765ZM33987.1 213408 33999.1 213408 33999.1 213765 33987.1 213765ZM34198.1 212956 34210.1 212956 34210.1 213765 34198.1 213765ZM34241.1 213384 34253.1 213384 34253.1 213765 34241.1 213765ZM34283.1 213575 34295.1 213575 34295.1 213765 34283.1 213765ZM34452.1 212551 34464.1 212551 34464.1 213765 34452.1 213765ZM34831.1 213480 34843.1 213480 34843.1 213765 34831.1 213765ZM35085.2 213194 35097.2 213194 35097.2 213765 35085.2 213765ZM35169.2 213718 35181.2 213718 35181.2 213765 35169.2 213765ZM35380.2 213003 35392.2 213003 35392.2 213765 35380.2 213765ZM35422.2 213242 35434.2 213242 35434.2 213765 35422.2 213765ZM35760.2 213623 35772.2 213623 35772.2 213765 35760.2 213765ZM36013.2 213646 36025.2 213646 36025.2 213765 36013.2 213765ZM36055.2 213742 36067.2 213742 36067.2 213765 36055.2 213765ZM36308.2 213289 36320.2 213289 36320.2 213765 36308.2 213765ZM36351.2 213123 36363.2 213123 36363.2 213765 36351.2 213765ZM36562.2 213194 36574.2 213194 36574.2 213765 36562.2 213765ZM36857.2 213503 36869.2 213503 36869.2 213765 36857.2 213765ZM36899.2 213384 36911.2 213384 36911.2 213765 36899.2 213765ZM36941.2 213408 36953.2 213408 36953.2 213765 36941.2 213765ZM37195.2 213670 37207.2 213670 37207.2 213765 37195.2 213765ZM37237.2 211765 37249.2 211765 37249.2 213765 37237.2 213765ZM37490.2 213384 37502.2 213384 37502.2 213765 37490.2 213765ZM37532.2 213718 37544.2 213718 37544.2 213765 37532.2 213765ZM37870.2 211623 37882.2 211623 37882.2 213765 37870.2 213765ZM38039.2 212718 38051.2 212718 38051.2 213765 38039.2 213765Z" fill="#4472C4"/></g><g clip-path="url(#clip3)"><path d="M32733.1 213623 32746.1 213623 32746.1 213765 32733.1 213765ZM32818.1 213527 32830.1 213527 32830.1 213765 32818.1 213765ZM33029.1 213742 33041.1 213742 33041.1 213765 33029.1 213765ZM33071.1 213384 33083.1 213384 33083.1 213765 33071.1 213765ZM33366.1 213575 33379.1 213575 33379.1 213765 33366.1 213765ZM33746.1 213646 33758.1 213646 33758.1 213765 33746.1 213765ZM33999.1 213718 34012.1 213718 34012.1 213765 33999.1 213765ZM34210.1 212623 34223.1 212623 34223.1 213765 34210.1 213765ZM34253.1 213242 34265.1 213242 34265.1 213765 34253.1 213765ZM34295.1 213503 34307.1 213503 34307.1 213765 34295.1 213765ZM34464.1 212694 34476.1 212694 34476.1 213765 34464.1 213765ZM34801.1 213599 34813.1 213599 34813.1 213765 34801.1 213765ZM34843.1 213718 34856.1 213718 34856.1 213765 34843.1 213765ZM35097.2 213551 35109.2 213551 35109.2 213765 35097.2 213765ZM35181.2 213742 35193.2 213742 35193.2 213765 35181.2 213765ZM35392.2 213575 35404.2 213575 35404.2 213765 35392.2 213765ZM35434.2 213551 35446.2 213551 35446.2 213765 35434.2 213765ZM35772.2 213670 35784.2 213670 35784.2 213765 35772.2 213765ZM36025.2 213670 36037.2 213670 36037.2 213765 36025.2 213765ZM36067.2 213503 36079.2 213503 36079.2 213765 36067.2 213765ZM36320.2 213432 36333.2 213432 36333.2 213765 36320.2 213765ZM36363.2 213599 36375.2 213599 36375.2 213765 36363.2 213765ZM36574.2 213218 36586.2 213218 36586.2 213765 36574.2 213765ZM36869.2 213575 36881.2 213575 36881.2 213765 36869.2 213765ZM36911.2 213575 36923.2 213575 36923.2 213765 36911.2 213765ZM36953.2 213599 36966.2 213599 36966.2 213765 36953.2 213765ZM37207.2 213670 37219.2 213670 37219.2 213765 37207.2 213765ZM37249.2 213623 37261.2 213623 37261.2 213765 37249.2 213765ZM37502.2 213623 37514.2 213623 37514.2 213765 37502.2 213765ZM37544.2 213480 37556.2 213480 37556.2 213765 37544.2 213765ZM37882.2 212575 37894.2 212575 37894.2 213765 37882.2 213765ZM38051.2 213718 38063.2 213718 38063.2 213765 38051.2 213765Z" fill="#ED7D31"/></g><g clip-path="url(#clip4)"><path d="M32290.5 213766 38156.5 213766" stroke="#D9D9D9" stroke-width="3.4375" stroke-linejoin="round" stroke-miterlimit="10" fill="none" fill-rule="evenodd"/></g><g clip-path="url(#clip5)"><path d="M32290.5 213766 32290.5 213782M32374.6 213766 32374.6 213782M32459.6 213766 32459.6 213782M32543.6 213766 32543.6 213782M32627.6 213766 32627.6 213782M32712.6 213766 32712.6 213782M32796.6 213766 32796.6 213782M32881.6 213766 32881.6 213782M32965.6 213766 32965.6 213782M33049.6 213766 33049.6 213782M33134.6 213766 33134.6 213782M33218.6 213766 33218.6 213782M33303.6 213766 33303.6 213782M33387.6 213766 33387.6 213782M33471.6 213766 33471.6 213782M33556.6 213766 33556.6 213782M33640.6 213766 33640.6 213782M33725.6 213766 33725.6 213782M33809.6 213766 33809.6 213782M33893.6 213766 33893.6 213782M33978.6 213766 33978.6 213782M34062.6 213766 34062.6 213782M34147.6 213766 34147.6 213782M34231.6 213766 34231.6 213782M34315.6 213766 34315.6 213782M34400.6 213766 34400.6 213782M34484.6 213766 34484.6 213782M34569.6 213766 34569.6 213782M34653.6 213766 34653.6 213782M34737.6 213766 34737.6 213782M34822.6 213766 34822.6 213782M34906.6 213766 34906.6 213782M34991.6 213766 34991.6 213782M35075.7 213766 35075.7 213782M35159.7 213766 35159.7 213782M35244.7 213766 35244.7 213782M35328.7 213766 35328.7 213782M35413.7 213766 35413.7 213782M35497.7 213766 35497.7 213782M35581.7 213766 35581.7 213782M35666.7 213766 35666.7 213782M35750.7 213766 35750.7 213782M35835.7 213766 35835.7 213782M35919.7 213766 35919.7 213782M36003.7 213766 36003.7 213782M36088.7 213766 36088.7 213782M36172.7 213766 36172.7 213782M36257.7 213766 36257.7 213782M36341.7 213766 36341.7 213782M36425.7 213766 36425.7 213782M36510.7 213766 36510.7 213782M36594.7 213766 36594.7 213782M36679.7 213766 36679.7 213782M36763.7 213766 36763.7 213782M36847.7 213766 36847.7 213782M36932.7 213766 36932.7 213782M37016.7 213766 37016.7 213782M37101.7 213766 37101.7 213782M37185.7 213766 37185.7 213782M37269.7 213766 37269.7 213782M37354.7 213766 37354.7 213782M37438.7 213766 37438.7 213782M37523.7 213766 37523.7 213782M37607.7 213766 37607.7 213782M37691.7 213766 37691.7 213782M37776.7 213766 37776.7 213782M37860.7 213766 37860.7 213782M37945.7 213766 37945.7 213782M38029.8 213766 38029.8 213782M38114.5 213766 38114.5 213782" stroke="#D9D9D9" stroke-width="3.4375" stroke-linejoin="round" stroke-miterlimit="10" fill="none"/></g><g clip-path="url(#clip6)"><text fill="#595959" font-family="Calibri,Calibri_MSFontService,sans-serif" font-weight="400" font-size="55" transform="matrix(1 0 0 1 32211.5 213781)">0</text></g><g clip-path="url(#clip7)"><text fill="#595959" font-family="Calibri,Calibri_MSFontService,sans-serif" font-weight="400" font-size="55" transform="matrix(1 0 0 1 32183.7 213543)">10</text></g><g clip-path="url(#clip8)"><text fill="#595959" font-family="Calibri,Calibri_MSFontService,sans-serif" font-weight="400" font-size="55" transform="matrix(1 0 0 1 32183.7 213305)">20</text></g><g clip-path="url(#clip9)"><text fill="#595959" font-family="Calibri,Calibri_MSFontService,sans-serif" font-weight="400" font-size="55" transform="matrix(1 0 0 1 32183.7 213066)">30</text></g><g clip-path="url(#clip10)"><text fill="#595959" font-family="Calibri,Calibri_MSFontService,sans-serif" font-weight="400" font-size="55" transform="matrix(1 0 0 1 32183.7 212828)">40</text></g><g clip-path="url(#clip11)"><text fill="#595959" font-family="Calibri,Calibri_MSFontService,sans-serif" font-weight="400" font-size="55" transform="matrix(1 0 0 1 32183.7 212590)">50</text></g><g clip-path="url(#clip12)"><text fill="#595959" font-family="Calibri,Calibri_MSFontService,sans-serif" font-weight="400" font-size="55" transform="matrix(1 0 0 1 32183.7 212352)">60</text></g><g clip-path="url(#clip13)"><text fill="#595959" font-family="Calibri,Calibri_MSFontService,sans-serif" font-weight="400" font-size="55" transform="matrix(1 0 0 1 32183.7 212114)">70</text></g><g clip-path="url(#clip14)"><text fill="#595959" font-family="Calibri,Calibri_MSFontService,sans-serif" font-weight="400" font-size="55" transform="matrix(1 0 0 1 32183.7 211876)">80</text></g><g clip-path="url(#clip15)"><text fill="#595959" font-family="Calibri,Calibri_MSFontService,sans-serif" font-weight="400" font-size="55" transform="matrix(1 0 0 1 32183.7 211638)">90</text></g><g clip-path="url(#clip16)"><text fill="#595959" font-family="Calibri,Calibri_MSFontService,sans-serif" font-weight="400" font-size="55" transform="matrix(1 0 0 1 32155.8 211400)">100</text></g><g clip-path="url(#clip17)"><text fill="#595959" font-family="Calibri,Calibri_MSFontService,sans-serif" font-weight="400" font-size="55" transform="matrix(6.12323e-17 -1 1 6.12323e-17 32330 214066)">02/01/2021</text></g><g clip-path="url(#clip18)"><text fill="#595959" font-family="Calibri,Calibri_MSFontService,sans-serif" font-weight="400" font-size="55" transform="matrix(6.12323e-17 -1 1 6.12323e-17 32414.4 214066)">04/01/2021</text></g><g clip-path="url(#clip19)"><text fill="#595959" font-family="Calibri,Calibri_MSFontService,sans-serif" font-weight="400" font-size="55" transform="matrix(6.12323e-17 -1 1 6.12323e-17 32498.8 214066)">06/01/2021</text></g><g clip-path="url(#clip20)"><text fill="#595959" font-family="Calibri,Calibri_MSFontService,sans-serif" font-weight="400" font-size="55" transform="matrix(6.12323e-17 -1 1 6.12323e-17 32583.2 214066)">08/01/2021</text></g><g clip-path="url(#clip21)"><text fill="#595959" font-family="Calibri,Calibri_MSFontService,sans-serif" font-weight="400" font-size="55" transform="matrix(6.12323e-17 -1 1 6.12323e-17 32667.6 214066)">10/01/2021</text></g><g clip-path="url(#clip22)"><text fill="#595959" font-family="Calibri,Calibri_MSFontService,sans-serif" font-weight="400" font-size="55" transform="matrix(6.12323e-17 -1 1 6.12323e-17 32752 214066)">12/01/2021</text></g><g clip-path="url(#clip23)"><text fill="#595959" font-family="Calibri,Calibri_MSFontService,sans-serif" font-weight="400" font-size="55" transform="matrix(6.12323e-17 -1 1 6.12323e-17 32836.4 214066)">14/01/2021</text></g><g clip-path="url(#clip24)"><text fill="#595959" font-family="Calibri,Calibri_MSFontService,sans-serif" font-weight="400" font-size="55" transform="matrix(6.12323e-17 -1 1 6.12323e-17 32920.8 214066)">16/01/2021</text></g><g clip-path="url(#clip25)"><text fill="#595959" font-family="Calibri,Calibri_MSFontService,sans-serif" font-weight="400" font-size="55" transform="matrix(6.12323e-17 -1 1 6.12323e-17 33005.2 214066)">18/01/2021</text></g><g clip-path="url(#clip26)"><text fill="#595959" font-family="Calibri,Calibri_MSFontService,sans-serif" font-weight="400" font-size="55" transform="matrix(6.12323e-17 -1 1 6.12323e-17 33089.6 214066)">20/01/2021</text></g><g clip-path="url(#clip27)"><text fill="#595959" font-family="Calibri,Calibri_MSFontService,sans-serif" font-weight="400" font-size="55" transform="matrix(6.12323e-17 -1 1 6.12323e-17 33174 214066)">22/01/2021</text></g><g clip-path="url(#clip28)"><text fill="#595959" font-family="Calibri,Calibri_MSFontService,sans-serif" font-weight="400" font-size="55" transform="matrix(6.12323e-17 -1 1 6.12323e-17 33258.4 214066)">24/01/2021</text></g><g clip-path="url(#clip29)"><text fill="#595959" font-family="Calibri,Calibri_MSFontService,sans-serif" font-weight="400" font-size="55" transform="matrix(6.12323e-17 -1 1 6.12323e-17 33342.8 214066)">26/01/2021</text></g><g clip-path="url(#clip30)"><text fill="#595959" font-family="Calibri,Calibri_MSFontService,sans-serif" font-weight="400" font-size="55" transform="matrix(6.12323e-17 -1 1 6.12323e-17 33427.2 214066)">28/01/2021</text></g><g clip-path="url(#clip31)"><text fill="#595959" font-family="Calibri,Calibri_MSFontService,sans-serif" font-weight="400" font-size="55" transform="matrix(6.12323e-17 -1 1 6.12323e-17 33511.6 214066)">30/01/2021</text></g><g clip-path="url(#clip32)"><text fill="#595959" font-family="Calibri,Calibri_MSFontService,sans-serif" font-weight="400" font-size="55" transform="matrix(6.12323e-17 -1 1 6.12323e-17 33596 214066)">01/02/2021</text></g><g clip-path="url(#clip33)"><text fill="#595959" font-family="Calibri,Calibri_MSFontService,sans-serif" font-weight="400" font-size="55" transform="matrix(6.12323e-17 -1 1 6.12323e-17 33680.4 214066)">03/02/2021</text></g><g clip-path="url(#clip34)"><text fill="#595959" font-family="Calibri,Calibri_MSFontService,sans-serif" font-weight="400" font-size="55" transform="matrix(6.12323e-17 -1 1 6.12323e-17 33764.8 214066)">05/02/2021</text></g><g clip-path="url(#clip35)"><text fill="#595959" font-family="Calibri,Calibri_MSFontService,sans-serif" font-weight="400" font-size="55" transform="matrix(6.12323e-17 -1 1 6.12323e-17 33849.2 214066)">07/02/2021</text></g><g clip-path="url(#clip36)"><text fill="#595959" font-family="Calibri,Calibri_MSFontService,sans-serif" font-weight="400" font-size="55" transform="matrix(6.12323e-17 -1 1 6.12323e-17 33933.6 214066)">09/02/2021</text></g><g clip-path="url(#clip37)"><text fill="#595959" font-family="Calibri,Calibri_MSFontService,sans-serif" font-weight="400" font-size="55" transform="matrix(6.12323e-17 -1 1 6.12323e-17 34018 214066)">11/02/2021</text></g><g clip-path="url(#clip38)"><text fill="#595959" font-family="Calibri,Calibri_MSFontService,sans-serif" font-weight="400" font-size="55" transform="matrix(6.12323e-17 -1 1 6.12323e-17 34102.4 214066)">13/02/2021</text></g><g clip-path="url(#clip39)"><text fill="#595959" font-family="Calibri,Calibri_MSFontService,sans-serif" font-weight="400" font-size="55" transform="matrix(6.12323e-17 -1 1 6.12323e-17 34186.8 214066)">15/02/2021</text></g><g clip-path="url(#clip40)"><text fill="#595959" font-family="Calibri,Calibri_MSFontService,sans-serif" font-weight="400" font-size="55" transform="matrix(6.12323e-17 -1 1 6.12323e-17 34271.2 214066)">17/02/2021</text></g><g clip-path="url(#clip41)"><text fill="#595959" font-family="Calibri,Calibri_MSFontService,sans-serif" font-weight="400" font-size="55" transform="matrix(6.12323e-17 -1 1 6.12323e-17 34355.6 214066)">19/02/2021</text></g><g clip-path="url(#clip42)"><text fill="#595959" font-family="Calibri,Calibri_MSFontService,sans-serif" font-weight="400" font-size="55" transform="matrix(6.12323e-17 -1 1 6.12323e-17 34440 214066)">21/02/2021</text></g><g clip-path="url(#clip43)"><text fill="#595959" font-family="Calibri,Calibri_MSFontService,sans-serif" font-weight="400" font-size="55" transform="matrix(6.12323e-17 -1 1 6.12323e-17 34524.4 214066)">23/02/2021</text></g><g clip-path="url(#clip44)"><text fill="#595959" font-family="Calibri,Calibri_MSFontService,sans-serif" font-weight="400" font-size="55" transform="matrix(6.12323e-17 -1 1 6.12323e-17 34608.8 214066)">25/02/2021</text></g><g clip-path="url(#clip45)"><text fill="#595959" font-family="Calibri,Calibri_MSFontService,sans-serif" font-weight="400" font-size="55" transform="matrix(6.12323e-17 -1 1 6.12323e-17 34693.2 214066)">27/02/2021</text></g><g clip-path="url(#clip46)"><text fill="#595959" font-family="Calibri,Calibri_MSFontService,sans-serif" font-weight="400" font-size="55" transform="matrix(6.12323e-17 -1 1 6.12323e-17 34777.7 214066)">01/03/2021</text></g><g clip-path="url(#clip47)"><text fill="#595959" font-family="Calibri,Calibri_MSFontService,sans-serif" font-weight="400" font-size="55" transform="matrix(6.12323e-17 -1 1 6.12323e-17 34862.1 214066)">03/03/2021</text></g><g clip-path="url(#clip48)"><text fill="#595959" font-family="Calibri,Calibri_MSFontService,sans-serif" font-weight="400" font-size="55" transform="matrix(6.12323e-17 -1 1 6.12323e-17 34946.5 214066)">05/03/2021</text></g><g clip-path="url(#clip49)"><text fill="#595959" font-family="Calibri,Calibri_MSFontService,sans-serif" font-weight="400" font-size="55" transform="matrix(6.12323e-17 -1 1 6.12323e-17 35030.9 214066)">07/03/2021</text></g><g clip-path="url(#clip50)"><text fill="#595959" font-family="Calibri,Calibri_MSFontService,sans-serif" font-weight="400" font-size="55" transform="matrix(6.12323e-17 -1 1 6.12323e-17 35115.3 214066)">09/03/2021</text></g><g clip-path="url(#clip51)"><text fill="#595959" font-family="Calibri,Calibri_MSFontService,sans-serif" font-weight="400" font-size="55" transform="matrix(6.12323e-17 -1 1 6.12323e-17 35199.7 214066)">11/03/2021</text></g><g clip-path="url(#clip52)"><text fill="#595959" font-family="Calibri,Calibri_MSFontService,sans-serif" font-weight="400" font-size="55" transform="matrix(6.12323e-17 -1 1 6.12323e-17 35284.1 214066)">13/03/2021</text></g><g clip-path="url(#clip53)"><text fill="#595959" font-family="Calibri,Calibri_MSFontService,sans-serif" font-weight="400" font-size="55" transform="matrix(6.12323e-17 -1 1 6.12323e-17 35368.5 214066)">15/03/2021</text></g><g clip-path="url(#clip54)"><text fill="#595959" font-family="Calibri,Calibri_MSFontService,sans-serif" font-weight="400" font-size="55" transform="matrix(6.12323e-17 -1 1 6.12323e-17 35452.9 214066)">17/03/2021</text></g><g clip-path="url(#clip55)"><text fill="#595959" font-family="Calibri,Calibri_MSFontService,sans-serif" font-weight="400" font-size="55" transform="matrix(6.12323e-17 -1 1 6.12323e-17 35537.3 214066)">19/03/2021</text></g><g clip-path="url(#clip56)"><text fill="#595959" font-family="Calibri,Calibri_MSFontService,sans-serif" font-weight="400" font-size="55" transform="matrix(6.12323e-17 -1 1 6.12323e-17 35621.7 214066)">21/03/2021</text></g><g clip-path="url(#clip57)"><text fill="#595959" font-family="Calibri,Calibri_MSFontService,sans-serif" font-weight="400" font-size="55" transform="matrix(6.12323e-17 -1 1 6.12323e-17 35706.1 214066)">23/03/2021</text></g><g clip-path="url(#clip58)"><text fill="#595959" font-family="Calibri,Calibri_MSFontService,sans-serif" font-weight="400" font-size="55" transform="matrix(6.12323e-17 -1 1 6.12323e-17 35790.5 214066)">25/03/2021</text></g><g clip-path="url(#clip59)"><text fill="#595959" font-family="Calibri,Calibri_MSFontService,sans-serif" font-weight="400" font-size="55" transform="matrix(6.12323e-17 -1 1 6.12323e-17 35874.9 214066)">27/03/2021</text></g><g clip-path="url(#clip60)"><text fill="#595959" font-family="Calibri,Calibri_MSFontService,sans-serif" font-weight="400" font-size="55" transform="matrix(6.12323e-17 -1 1 6.12323e-17 35959.3 214066)">29/03/2021</text></g><g clip-path="url(#clip61)"><text fill="#595959" font-family="Calibri,Calibri_MSFontService,sans-serif" font-weight="400" font-size="55" transform="matrix(6.12323e-17 -1 1 6.12323e-17 36043.7 214066)">31/03/2021</text></g><g clip-path="url(#clip62)"><text fill="#595959" font-family="Calibri,Calibri_MSFontService,sans-serif" font-weight="400" font-size="55" transform="matrix(6.12323e-17 -1 1 6.12323e-17 36128.1 214066)">02/04/2021</text></g><g clip-path="url(#clip63)"><text fill="#595959" font-family="Calibri,Calibri_MSFontService,sans-serif" font-weight="400" font-size="55" transform="matrix(6.12323e-17 -1 1 6.12323e-17 36212.5 214066)">04/04/2021</text></g><g clip-path="url(#clip64)"><text fill="#595959" font-family="Calibri,Calibri_MSFontService,sans-serif" font-weight="400" font-size="55" transform="matrix(6.12323e-17 -1 1 6.12323e-17 36296.9 214066)">06/04/2021</text></g><g clip-path="url(#clip65)"><text fill="#595959" font-family="Calibri,Calibri_MSFontService,sans-serif" font-weight="400" font-size="55" transform="matrix(6.12323e-17 -1 1 6.12323e-17 36381.3 214066)">08/04/2021</text></g><g clip-path="url(#clip66)"><text fill="#595959" font-family="Calibri,Calibri_MSFontService,sans-serif" font-weight="400" font-size="55" transform="matrix(6.12323e-17 -1 1 6.12323e-17 36465.7 214066)">10/04/2021</text></g><g clip-path="url(#clip67)"><text fill="#595959" font-family="Calibri,Calibri_MSFontService,sans-serif" font-weight="400" font-size="55" transform="matrix(6.12323e-17 -1 1 6.12323e-17 36550.1 214066)">12/04/2021</text></g><g clip-path="url(#clip68)"><text fill="#595959" font-family="Calibri,Calibri_MSFontService,sans-serif" font-weight="400" font-size="55" transform="matrix(6.12323e-17 -1 1 6.12323e-17 36634.5 214066)">14/04/2021</text></g><g clip-path="url(#clip69)"><text fill="#595959" font-family="Calibri,Calibri_MSFontService,sans-serif" font-weight="400" font-size="55" transform="matrix(6.12323e-17 -1 1 6.12323e-17 36718.9 214066)">16/04/2021</text></g><g clip-path="url(#clip70)"><text fill="#595959" font-family="Calibri,Calibri_MSFontService,sans-serif" font-weight="400" font-size="55" transform="matrix(6.12323e-17 -1 1 6.12323e-17 36803.3 214066)">18/04/2021</text></g><g clip-path="url(#clip71)"><text fill="#595959" font-family="Calibri,Calibri_MSFontService,sans-serif" font-weight="400" font-size="55" transform="matrix(6.12323e-17 -1 1 6.12323e-17 36887.7 214066)">20/04/2021</text></g><g clip-path="url(#clip72)"><text fill="#595959" font-family="Calibri,Calibri_MSFontService,sans-serif" font-weight="400" font-size="55" transform="matrix(6.12323e-17 -1 1 6.12323e-17 36972.1 214066)">22/04/2021</text></g><g clip-path="url(#clip73)"><text fill="#595959" font-family="Calibri,Calibri_MSFontService,sans-serif" font-weight="400" font-size="55" transform="matrix(6.12323e-17 -1 1 6.12323e-17 37056.5 214066)">24/04/2021</text></g><g clip-path="url(#clip74)"><text fill="#595959" font-family="Calibri,Calibri_MSFontService,sans-serif" font-weight="400" font-size="55" transform="matrix(6.12323e-17 -1 1 6.12323e-17 37140.9 214066)">26/04/2021</text></g><g clip-path="url(#clip75)"><text fill="#595959" font-family="Calibri,Calibri_MSFontService,sans-serif" font-weight="400" font-size="55" transform="matrix(6.12323e-17 -1 1 6.12323e-17 37225.3 214066)">28/04/2021</text></g><g clip-path="url(#clip76)"><text fill="#595959" font-family="Calibri,Calibri_MSFontService,sans-serif" font-weight="400" font-size="55" transform="matrix(6.12323e-17 -1 1 6.12323e-17 37309.7 214066)">30/04/2021</text></g><g clip-path="url(#clip77)"><text fill="#595959" font-family="Calibri,Calibri_MSFontService,sans-serif" font-weight="400" font-size="55" transform="matrix(6.12323e-17 -1 1 6.12323e-17 37394.1 214066)">02/05/2021</text></g><g clip-path="url(#clip78)"><text fill="#595959" font-family="Calibri,Calibri_MSFontService,sans-serif" font-weight="400" font-size="55" transform="matrix(6.12323e-17 -1 1 6.12323e-17 37478.6 214066)">04/05/2021</text></g><g clip-path="url(#clip79)"><text fill="#595959" font-family="Calibri,Calibri_MSFontService,sans-serif" font-weight="400" font-size="55" transform="matrix(6.12323e-17 -1 1 6.12323e-17 37563 214066)">06/05/2021</text></g><g clip-path="url(#clip80)"><text fill="#595959" font-family="Calibri,Calibri_MSFontService,sans-serif" font-weight="400" font-size="55" transform="matrix(6.12323e-17 -1 1 6.12323e-17 37647.4 214066)">08/05/2021</text></g><g clip-path="url(#clip81)"><text fill="#595959" font-family="Calibri,Calibri_MSFontService,sans-serif" font-weight="400" font-size="55" transform="matrix(6.12323e-17 -1 1 6.12323e-17 37731.8 214066)">10/05/2021</text></g><g clip-path="url(#clip82)"><text fill="#595959" font-family="Calibri,Calibri_MSFontService,sans-serif" font-weight="400" font-size="55" transform="matrix(6.12323e-17 -1 1 6.12323e-17 37816.2 214066)">12/05/2021</text></g><g clip-path="url(#clip83)"><text fill="#595959" font-family="Calibri,Calibri_MSFontService,sans-serif" font-weight="400" font-size="55" transform="matrix(6.12323e-17 -1 1 6.12323e-17 37900.6 214066)">14/05/2021</text></g><g clip-path="url(#clip84)"><text fill="#595959" font-family="Calibri,Calibri_MSFontService,sans-serif" font-weight="400" font-size="55" transform="matrix(6.12323e-17 -1 1 6.12323e-17 37985 214066)">16/05/2021</text></g><g clip-path="url(#clip85)"><text fill="#595959" font-family="Calibri,Calibri_MSFontService,sans-serif" font-weight="400" font-size="55" transform="matrix(6.12323e-17 -1 1 6.12323e-17 38069.4 214066)">18/05/2021</text></g><g clip-path="url(#clip86)"><text fill="#595959" font-family="Calibri,Calibri_MSFontService,sans-serif" font-weight="400" font-size="55" transform="matrix(6.12323e-17 -1 1 6.12323e-17 38153.8 214066)">20/05/2021</text></g><g clip-path="url(#clip87)"><text fill="#595959" font-family="Calibri,Calibri_MSFontService,sans-serif" font-weight="400" font-size="83" transform="matrix(6.12323e-17 -1 1 6.12323e-17 32120.3 212876)">Number of events</text></g><g clip-path="url(#clip88)"><text fill="#595959" font-family="Calibri,Calibri_MSFontService,sans-serif" font-weight="400" font-size="73" transform="matrix(1 0 0 1 35073.1 214149)">Snapshot</text></g><g clip-path="url(#clip89)"><text fill="#595959" font-family="Calibri,Calibri_MSFontService,sans-serif" font-weight="700" font-size="92" transform="matrix(1 0 0 1 34558.4 211321)">Switch addition and deletion</text></g><g clip-path="url(#clip90)"><rect x="34772" y="211691" width="36" height="36" fill="#4472C4"/></g><g clip-path="url(#clip91)"><text fill="#595959" font-family="Calibri,Calibri_MSFontService,sans-serif" font-weight="400" font-size="64" transform="matrix(1 0 0 1 34823.6 211727)">Additions</text></g><g clip-path="url(#clip92)"><rect x="35133" y="211691" width="36" height="36" fill="#ED7D31"/></g><g clip-path="url(#clip93)"><text fill="#595959" font-family="Calibri,Calibri_MSFontService,sans-serif" font-weight="400" font-size="64" transform="matrix(1 0 0 1 35184.6 211727)">Deletions</text></g><rect x="31959.5" y="211200" width="6291" height="3054" stroke="#D9D9D9" stroke-width="3.4375" stroke-linejoin="round" stroke-miterlimit="10" fill="none"/></g></svg>